# xmcd
#
# Track frame offsets:
#	150
#	10205
#	22217
#	39157
#	52215
#	74812
#	85562
#	100162
#	113380
#	124457
#	136475
#	162360
#	174272
#	202030
#	215110
#
# Disc length: 3044
#
# Revision: 1
# Processed by: cddbd v1.5.1PL0 Copyright (c) Steve Scherf et al.
# Submitted via: dBpowerAMP V4.0
# Normalized: r0:DSETVAR1,TDELIM( - )
#
DISCID=d90be20f
DTITLE=Various Artist - The Soul of Blues CD2
DYEAR=1996
DGENRE=Soul
TTITLE0=Golden Gate Quartet - When the Saints go marching in
TTITLE1=The Temptations feat. Eddie Hendricks - I can`t get next to you
TTITLE2=Etta James - Blowin´ in the wind
TTITLE3=Ray Charles - Unchain my heart
TTITLE4=Ella Fitzgerald feat. Louis Armstrong - Tenderly
TTITLE5=Brook Benton - Thank you Pretty Baby
TTITLE6=Sarah Vaughan - Summertime
TTITLE7=The Driffters - Oh Brodway
TTITLE8=Aretha Franklin - Respect
TTITLE9=The Platters - Remember when
TTITLE10=Gloria Gaynor - Careless Whisper
TTITLE11=Ike and Tina Turner - Knock on wood
TTITLE12=The 5th Dimension - Ode to Billie Joe
TTITLE13=Carla Thomas - B-A-B-Y
TTITLE14=Sam and Dave - Soul man
EXTD=
EXTT0=
EXTT1=
EXTT2=
EXTT3=
EXTT4=
EXTT5=
EXTT6=
EXTT7=
EXTT8=
EXTT9=
EXTT10=
EXTT11=
EXTT12=
EXTT13=
EXTT14=
PLAYORDER=
